<svg width="671" height="473" viewBox="0 0 671 473" fill="none" xmlns="http://www.w3.org/2000/svg">
<g clip-path="url(#clip0_2842_120182)">
<path d="M291.307 94.6766C288.038 94.6766 284.659 95 281.499 95.6469C277.14 73.8691 255.672 59.7459 233.659 64.1662C230.498 64.813 227.447 65.7833 224.614 67.077C214.806 39.0462 183.966 24.2762 155.632 33.9791C127.298 43.6821 112.368 74.1925 122.176 102.116C122.394 102.655 122.503 103.086 122.721 103.625C97.7655 104.487 78.2588 125.079 79.0216 149.768C79.7845 173.81 99.7271 192.892 124.029 193H291.307C318.769 193 341 171.007 341 143.838C341 116.67 318.769 94.6766 291.307 94.6766Z" fill="#1E91FE"/>
<path d="M508.359 119.945C505.41 119.945 502.321 120.226 499.513 120.787C495.581 100.849 476.204 87.9305 456.265 92.0025C453.457 92.5641 450.648 93.4066 447.981 94.6703C438.292 69.3958 410.069 56.6181 384.654 66.1662C359.941 75.574 347.023 102.955 355.728 128.089C333.122 128.791 315.429 147.747 316.132 170.354C316.834 192.399 334.947 209.81 356.852 209.951H508.218C533.072 210.372 553.572 190.573 553.993 165.58C554.415 140.586 534.616 120.226 509.622 119.805C509.342 119.805 508.78 119.805 508.359 119.945Z" fill="white"/>
<path d="M375.668 141.014H383.391V152.387H390.552V124.164H383.391V134.836H375.668V124.164H368.366V152.387H375.668V141.014Z" fill="#005EB8"/>
<path d="M403.049 124.164H395.747V152.387H403.049V124.164Z" fill="#005EB8"/>
<path d="M471.15 157.578V158.842H475.643V172.743H477.047V158.842H481.681V157.578H471.15Z" fill="#005EB8"/>
<path d="M467.359 170.215L459.777 157.578H458.232V172.743H459.496V159.965L467.079 172.743H468.623V157.578H467.359V170.215Z" fill="#005EB8"/>
<path d="M448.543 157.578L442.926 172.743H444.33L446.015 168.109H452.615L454.3 172.743H455.704L450.087 157.578H448.543ZM446.437 166.845L449.245 158.982L452.194 166.845H446.437Z" fill="#005EB8"/>
<path d="M440.82 157.578H439.557V172.743H440.82V157.578Z" fill="#005EB8"/>
<path d="M429.587 157.578H428.323V172.743H437.169V171.479H429.587V157.578Z" fill="#005EB8"/>
<path d="M423.83 158.701C422.847 157.859 421.583 157.578 420.179 157.578H415.124V172.743H416.388V166.143H419.477C420.881 166.284 422.426 165.863 423.549 165.02C424.532 164.178 424.953 163.054 424.953 161.791C425.093 160.667 424.672 159.404 423.83 158.701ZM422.566 164.178C421.583 164.739 420.6 165.02 419.477 164.88H416.388V158.842H420.179C421.162 158.701 422.004 158.982 422.847 159.544C423.97 160.808 423.83 162.914 422.566 164.178Z" fill="#005EB8"/>
<path d="M404.874 170.496L400.381 157.578H398.555V172.743H399.819V159.684L404.312 172.743H405.436L409.929 159.684V172.743H411.192V157.578H409.367L404.874 170.496Z" fill="#005EB8"/>
<path d="M388.866 157.168C387.041 157.168 385.356 157.87 384.233 159.274C381.846 162.785 381.846 167.418 384.233 170.929C385.356 172.333 387.041 173.175 388.866 173.035C390.692 173.035 392.377 172.333 393.5 170.929C395.887 167.418 395.887 162.785 393.5 159.274C392.377 157.87 390.692 157.168 388.866 157.168ZM392.517 170.086C391.675 171.209 390.27 171.911 388.726 171.911C387.322 171.911 385.918 171.35 385.075 170.086C383.25 166.997 383.25 163.206 385.075 160.117C385.918 158.993 387.181 158.291 388.726 158.291C390.13 158.291 391.534 158.853 392.517 160.117C394.483 163.206 394.483 167.137 392.517 170.086Z" fill="#005EB8"/>
<path d="M377.493 170.78C375.387 172.465 372.298 172.184 370.613 170.077C369.63 168.533 369.208 166.848 369.208 165.023C369.068 163.338 369.63 161.512 370.613 160.108C371.455 158.985 372.859 158.283 374.263 158.423C375.387 158.423 376.37 158.704 377.212 159.406C378.055 160.108 378.476 160.951 378.616 162.074H380.02C380.02 160.67 379.318 159.406 378.335 158.563C377.212 157.581 375.808 157.159 374.263 157.3C372.438 157.3 370.753 158.002 369.63 159.406C368.366 161.091 367.804 163.197 367.804 165.163C367.664 167.269 368.226 169.375 369.489 171.06C370.613 172.465 372.298 173.307 374.123 173.167C375.667 173.307 377.072 172.745 378.195 171.762C379.318 170.78 379.88 169.375 379.88 167.831H378.897C378.757 168.954 378.335 169.937 377.493 170.78Z" fill="#005EB8"/>
<path d="M435.344 152.387L437.029 146.771H445.314L446.999 152.387H454.722L446.016 124.164H437.872L428.885 152.387H435.344ZM441.242 132.027L443.769 140.873H438.714L441.242 132.027Z" fill="#005EB8"/>
<path d="M463.848 146.63H472.133L473.817 152.247H481.54L472.835 124.023H464.691L455.704 152.247H462.163L463.848 146.63ZM468.061 132.027L470.588 140.873H465.533L468.061 132.027Z" fill="#005EB8"/>
<path d="M431.131 133.01C431.131 131.185 430.569 129.359 429.586 127.955C428.603 126.692 427.48 125.709 425.935 125.007C424.11 124.445 422.144 124.164 420.178 124.164H408.945V152.387H416.387V142.278H420.459C422.004 142.278 423.408 142.137 424.952 141.856C426.076 141.575 427.059 141.014 427.901 140.312C429.025 139.469 429.867 138.346 430.288 137.082C430.85 135.818 431.131 134.414 431.131 133.01ZM422.987 135.397C422.144 136.099 421.021 136.521 419.898 136.38H416.106V129.921H419.757C420.88 129.781 421.863 130.202 422.706 130.764C423.408 131.325 423.689 132.168 423.689 133.151C423.829 133.993 423.548 134.836 422.987 135.397Z" fill="#005EB8"/>
<path d="M423 209L423 283" stroke="white" stroke-width="4.5" stroke-miterlimit="10" stroke-linecap="round" stroke-linejoin="round" stroke-dasharray="11 11"/>
<path d="M152 185L152 329" stroke="#1E91FE" stroke-width="4.5" stroke-miterlimit="10" stroke-linecap="round" stroke-linejoin="round" stroke-dasharray="11 11"/>
<path d="M273 185L273 298" stroke="#1E91FE" stroke-width="4.5" stroke-miterlimit="10" stroke-linecap="round" stroke-linejoin="round" stroke-dasharray="11 11"/>
<g filter="url(#filter0_d_2842_120182)">
<path d="M359.28 78.1075C359.28 76.4484 359.612 74.8999 360.165 73.3515C346.45 64.6136 328.864 61.0742 312.605 61.0742C296.346 61.0742 278.759 64.6136 265.044 73.3515C267.699 79.9878 264.381 87.509 257.744 90.1636C256.196 90.7166 254.647 91.0484 252.988 91.0484C253.32 111.953 255.311 136.839 265.376 155.974C276.215 176.657 297.894 190.925 312.494 197.562C327.094 190.925 348.773 176.657 359.612 155.974C369.677 136.839 371.779 111.953 372 91.0484C365.032 91.0484 359.28 85.1863 359.28 78.1075Z" fill="#F2F0F0"/>
<path d="M312.715 186.832C298.89 179.753 282.52 167.365 274.224 151.548C265.929 135.621 263.717 115.048 263.053 98.5682C270.685 94.8076 275.552 87.1758 275.773 78.6591C285.949 73.6819 298.779 71.0273 312.715 71.0273C326.652 71.0273 339.482 73.6819 349.658 78.6591C349.879 87.1758 354.745 94.8076 362.377 98.5682C361.714 115.048 359.501 135.842 351.317 151.548C343.132 167.254 326.541 179.753 312.715 186.832Z" fill="#FBB040"/>
<path d="M351.206 151.548C359.501 135.842 361.714 115.048 362.267 98.5682C354.635 94.8076 349.768 87.1758 349.547 78.6591C339.371 73.6819 326.541 71.0273 312.604 71.0273V186.942C326.541 179.753 342.8 167.365 351.206 151.548Z" fill="#ED8B00"/>
<path d="M311.94 151.223H313.157L313.047 155.315V157.638L312.936 163.832C313.378 164.606 313.378 165.601 312.936 166.376L312.825 166.486V166.597L312.494 167.482L312.162 166.597V166.486L312.051 166.376C311.609 165.601 311.609 164.606 312.051 163.832L311.94 157.638V155.315V151.223Z" fill="white"/>
<path d="M308.622 150.224C309.065 150.445 309.507 150.666 309.95 150.888C310.06 150.998 310.281 150.998 310.392 151.109H310.281L309.95 151.219C309.728 151.441 309.618 151.662 309.507 151.883C309.397 152.325 309.286 152.878 309.286 153.431C309.286 154.095 309.507 155.312 309.507 156.086C309.618 156.86 309.618 157.524 309.728 158.188C309.839 158.851 309.95 159.515 310.06 160.178C310.171 160.731 310.392 161.174 310.613 161.616C310.945 161.948 311.719 162.28 311.719 162.391C311.719 162.501 311.056 162.501 310.724 162.391C310.392 162.28 310.171 162.059 310.06 161.838C309.839 161.506 309.618 161.174 309.397 160.842C309.286 160.51 309.065 160.178 309.065 159.847C308.954 159.404 308.844 159.072 308.622 158.077C308.401 157.081 307.959 155.091 307.738 154.095C307.627 153.431 307.516 152.768 307.627 151.994C307.627 151.662 307.737 151.33 307.848 150.998C307.848 150.777 307.848 150.888 307.848 150.888V150.777C307.848 150.666 307.848 150.666 307.959 150.556C308.069 150.445 308.18 150.224 308.291 150.113L308.622 150.224Z" fill="white"/>
<path d="M311.83 143.039H313.379L313.268 148.127H311.941L311.83 143.039Z" fill="white"/>
<path d="M307.185 142.367C307.406 142.367 307.738 142.588 308.069 142.699L309.618 143.141H309.729C309.729 143.141 309.728 143.141 309.618 143.141C309.507 143.252 309.286 143.473 309.175 143.584C308.954 143.916 308.733 144.137 308.622 144.469C308.512 144.69 308.401 144.911 308.401 145.132C308.291 145.464 308.291 145.796 308.401 146.128C308.512 146.57 308.622 146.902 308.954 147.234C309.286 147.566 309.728 147.897 310.171 148.119C310.724 148.34 311.277 148.561 311.941 148.672C312.494 148.782 313.157 148.782 313.821 149.004C314.485 149.114 315.148 149.335 315.701 149.557L315.922 149.667C316.033 149.667 316.475 149.999 316.697 150.22C316.918 150.441 317.028 150.663 317.25 150.884C317.36 150.994 317.36 150.994 317.36 151.105V151.216C317.36 151.216 317.36 151.216 317.36 151.326C317.471 151.658 317.582 151.99 317.582 152.322C317.582 152.985 317.582 153.649 317.471 154.423C317.36 155.419 316.807 157.52 316.586 158.405C316.365 159.4 316.365 159.622 316.144 160.175C316.033 160.507 315.922 160.838 315.812 161.17C315.591 161.502 315.369 161.834 315.148 162.166C314.927 162.387 314.706 162.608 314.485 162.719C314.153 162.829 313.489 162.829 313.489 162.719C313.489 162.608 314.263 162.276 314.595 161.944C314.927 161.502 315.038 161.06 315.148 160.507C315.259 159.843 315.369 159.179 315.48 158.516C315.591 157.852 315.591 157.188 315.701 156.414C315.812 155.64 315.922 154.423 315.922 153.76C315.922 153.207 315.922 152.764 315.701 152.211C315.591 151.99 315.48 151.769 315.259 151.547L314.927 151.437C314.595 151.216 314.153 151.105 313.821 151.105C313.379 150.994 312.494 150.994 312.494 150.994C312.051 150.994 311.83 150.994 311.498 150.884C311.166 150.884 310.724 150.773 310.392 150.663C309.95 150.552 309.397 150.331 308.954 150.11C308.401 149.888 307.959 149.557 307.516 149.225C307.185 148.893 306.853 148.561 306.632 148.119C306.41 147.787 306.189 147.344 306.189 147.013C306.079 146.57 305.968 146.017 306.079 145.575C306.189 145.022 306.3 144.579 306.521 144.026C306.742 143.584 306.853 143.031 307.185 142.81C307.074 142.367 307.185 142.367 307.185 142.367Z" fill="white"/>
<path d="M311.719 134.512H313.489L313.378 139.489H311.719V134.512Z" fill="white"/>
<path d="M308.623 134.625L308.07 134.957C307.96 135.068 307.849 135.068 307.738 135.178C307.628 135.289 307.517 135.4 307.407 135.621C307.296 135.842 307.185 135.953 307.075 136.174C306.964 136.395 306.964 136.727 306.853 136.948C306.853 137.169 306.743 137.391 306.853 137.612C306.853 137.833 306.964 138.165 307.075 138.386C307.296 138.718 307.517 138.939 307.849 139.05C308.291 139.271 308.734 139.492 309.176 139.603C309.95 139.713 310.725 139.824 311.388 139.934C312.052 140.045 312.494 139.934 313.158 139.934C313.822 139.934 314.485 140.045 315.149 140.266C315.702 140.377 316.255 140.598 316.808 140.93C317.25 141.151 317.693 141.483 318.135 141.815C318.357 142.036 318.578 142.368 318.799 142.7C319.02 143.142 319.241 143.584 319.463 144.027C319.573 144.137 319.573 144.359 319.573 144.469V144.58V144.691C319.573 144.691 319.573 144.801 319.573 144.912C319.573 145.022 319.573 145.244 319.573 145.465C319.573 145.686 319.573 145.907 319.573 146.018C319.573 146.239 319.463 146.46 319.352 146.681C319.241 147.013 319.02 147.345 318.799 147.677C318.578 148.009 318.357 148.23 318.025 148.562C317.693 148.894 317.14 149.225 317.029 149.336C317.029 149.336 316.919 149.336 316.919 149.447C316.808 149.447 316.476 149.115 316.255 149.004C316.144 148.894 315.923 148.783 315.813 148.672C315.591 148.562 315.149 148.451 314.928 148.34L314.264 148.119C314.153 148.119 313.932 148.119 314.043 148.119C314.153 148.119 314.375 148.119 314.485 148.119C314.707 148.119 314.928 148.009 315.038 147.898C315.26 147.787 315.591 147.566 315.923 147.456C316.144 147.345 316.366 147.124 316.587 147.013C316.697 146.903 316.919 146.681 317.029 146.46C317.14 146.239 317.25 146.018 317.25 145.797C317.25 145.575 317.25 145.354 317.25 145.133C317.25 145.022 317.25 144.912 317.14 144.801L317.029 144.58C316.919 144.359 316.808 144.027 316.697 143.806C316.476 143.474 316.255 143.253 316.034 143.031C315.702 142.81 315.26 142.589 314.928 142.478C314.485 142.368 314.043 142.257 313.6 142.147C313.158 142.147 312.826 142.147 312.163 142.147C311.499 142.147 310.614 142.147 309.951 142.147C309.287 142.036 308.734 141.925 308.07 141.815C306.964 141.594 305.858 141.041 305.084 140.156C304.752 139.934 304.531 139.603 304.42 139.271C304.199 138.939 304.088 138.607 303.978 138.275C303.867 137.833 303.867 137.391 303.867 136.948C303.867 136.506 303.978 135.953 304.088 135.51C304.31 134.736 304.641 133.962 305.194 133.298C305.305 133.188 305.416 133.188 305.526 133.188C305.858 133.298 306.19 133.409 306.522 133.519C306.964 133.63 307.185 133.851 307.517 133.962C307.96 134.072 308.623 134.183 308.734 134.294" fill="white"/>
<path d="M311.499 124.34H313.711L313.601 130.202H311.61L311.499 124.34Z" fill="white"/>
<path d="M303.425 123.02C304.199 123.351 304.973 123.573 305.748 123.794C306.411 124.015 307.186 124.126 307.849 124.236H308.07L307.739 124.347C307.075 124.568 306.411 125.01 305.858 125.453C305.305 125.895 305.084 126.559 304.973 127.223C304.973 127.886 305.195 128.439 305.527 128.992C306.08 129.435 306.633 129.766 307.296 130.098C307.849 130.32 308.402 130.541 308.955 130.651H309.066C309.066 130.651 309.176 130.651 309.176 130.762H309.398L309.84 130.873C310.393 130.983 310.946 130.983 311.61 130.983L313.711 131.094C314.264 131.094 314.817 131.094 315.481 131.204C316.145 131.315 316.919 131.536 317.583 131.757C318.025 131.868 318.467 132.089 318.799 132.31C319.242 132.532 319.573 132.863 319.905 133.195C320.237 133.527 320.569 133.859 320.79 134.301C321.011 134.744 321.233 135.186 321.343 135.629C321.564 136.071 321.675 136.624 321.675 137.066C321.786 137.509 321.675 137.951 321.675 138.394C321.564 138.947 321.343 139.5 321.122 140.053C320.79 140.495 320.348 140.827 319.905 141.048C319.573 141.27 319.352 141.491 319.242 141.491C319.131 141.601 319.242 141.601 319.131 141.601C319.02 141.491 318.799 141.38 318.467 141.159C318.136 140.827 317.693 140.606 317.361 140.385C317.029 140.274 316.587 140.053 316.255 140.053C316.255 140.053 316.145 140.053 316.255 140.053C316.366 140.053 316.587 139.942 316.698 139.942C317.251 139.832 317.693 139.61 318.136 139.279C318.467 139.057 318.689 138.726 318.91 138.394C319.02 138.173 319.02 137.951 319.02 137.62C319.02 137.288 319.02 136.956 318.91 136.624C318.799 136.292 318.578 135.96 318.357 135.739C318.025 135.407 317.693 135.076 317.251 134.854C316.698 134.633 316.034 134.412 315.37 134.301C314.707 134.191 314.043 134.191 313.49 134.191C312.826 134.191 312.495 134.301 311.61 134.191C310.836 134.08 309.398 133.97 308.623 133.859C307.96 133.748 307.296 133.527 306.633 133.306C306.19 133.195 305.748 133.085 305.305 132.863L305.195 132.753C305.084 132.753 305.195 132.753 304.863 132.532C304.31 132.2 303.867 131.868 303.425 131.426C302.983 131.094 302.651 130.651 302.429 130.209C302.098 129.766 301.987 129.324 301.876 128.771C301.876 127.997 301.877 127.333 301.987 126.559C302.098 126.006 302.208 125.563 302.54 125.121C302.872 124.457 303.204 123.904 303.757 123.351L303.425 123.02Z" fill="white"/>
<path d="M311.72 111.508H313.379L313.932 113.278L313.821 119.361H311.388L311.277 113.278L311.72 111.508Z" fill="white"/>
<path d="M323.776 126.44C323.666 125.887 323.555 125.445 323.223 125.002C322.891 124.339 322.56 123.786 322.007 123.233C321.564 122.68 321.011 122.237 320.347 121.905C319.573 121.463 318.688 121.131 317.804 120.799C316.587 120.578 315.37 120.357 314.154 120.246C312.826 120.136 310.946 120.025 309.619 119.914C308.513 119.804 307.407 119.693 306.411 119.361C305.526 119.03 304.641 118.698 303.867 118.145C303.204 117.702 302.872 117.481 302.651 116.928C302.429 116.264 302.319 115.49 302.429 114.827C302.54 114.273 302.651 113.72 302.872 113.278C303.093 112.946 303.314 112.614 303.646 112.283C303.867 112.061 304.088 111.84 304.31 111.619C304.531 111.508 304.863 111.398 305.194 111.398C305.747 111.508 306.19 111.619 306.632 111.73C307.075 111.84 307.296 112.172 307.738 112.172C308.291 112.172 308.845 112.172 309.398 111.951C309.951 111.84 310.393 111.619 310.946 111.398C311.278 111.287 311.388 111.066 311.499 110.734C311.499 110.402 311.388 110.181 311.167 109.96C310.946 109.628 310.614 109.407 310.282 109.186C309.951 108.964 309.508 108.743 309.066 108.522C308.513 108.411 307.96 108.301 307.407 108.301C306.743 108.301 306.079 108.411 305.416 108.522C304.752 108.633 304.199 108.854 303.535 108.964C302.982 109.075 302.54 109.296 301.987 109.517C301.545 109.628 301.213 109.849 300.881 110.181C300.328 110.624 299.775 111.177 299.222 111.73C298.89 112.172 298.558 112.725 298.448 113.278C298.226 114.052 298.116 114.827 298.116 115.711C298.116 116.375 298.226 117.039 298.448 117.592C298.779 118.477 299.222 119.361 299.775 120.136C300.438 120.799 301.323 121.463 302.208 121.905C303.093 122.348 304.088 122.79 304.973 123.011C306.301 123.343 307.628 123.564 308.955 123.675C310.282 123.786 311.831 123.786 313.048 123.896C314.264 123.896 315.37 124.007 316.476 124.228C317.472 124.449 318.357 124.892 319.131 125.555C319.684 125.998 319.905 126.661 320.016 127.325C320.126 127.989 319.905 128.652 319.463 129.095C318.578 129.648 317.582 130.09 316.587 130.533L316.034 130.754L316.476 130.864C316.919 130.975 317.361 131.196 317.914 131.417C318.578 131.749 319.352 132.192 320.016 132.634C320.237 132.745 320.016 132.855 320.569 132.523C321.122 132.192 321.564 131.86 322.007 131.417C322.449 131.086 322.781 130.643 323.002 130.201C323.334 129.758 323.444 129.316 323.555 128.763C323.997 127.878 323.998 127.104 323.776 126.44ZM308.955 109.296C309.176 109.296 309.398 109.407 309.398 109.517C309.398 109.628 309.176 109.739 308.955 109.739C308.734 109.739 308.513 109.628 308.513 109.517C308.513 109.407 308.734 109.296 308.955 109.296Z" fill="white"/>
<path d="M326.541 113.384C326.43 112.83 326.098 112.277 325.767 111.835C325.324 111.282 324.771 110.729 324.107 110.287C323.776 110.065 323.444 109.844 323.001 109.623C322.559 109.402 322.006 109.18 321.453 109.07C320.789 108.959 319.683 108.738 319.02 108.627C318.577 108.517 318.135 108.406 317.582 108.406C317.029 108.406 316.476 108.517 315.923 108.627C315.48 108.738 315.148 108.959 314.706 109.291C314.374 109.512 314.042 109.734 313.821 110.065C313.6 110.287 313.489 110.508 313.489 110.84C313.6 111.171 313.821 111.393 314.042 111.503C314.485 111.724 315.038 111.946 315.591 112.056C316.144 112.167 316.697 112.277 317.25 112.277C317.692 112.277 317.914 111.946 318.356 111.835C318.798 111.724 319.351 111.614 319.794 111.503C320.126 111.503 320.347 111.503 320.679 111.724C320.9 111.835 321.232 112.056 321.342 112.388C321.674 112.72 321.895 113.052 322.117 113.384C322.338 113.826 322.559 114.379 322.559 114.932C322.67 115.596 322.559 116.37 322.338 117.034C322.117 117.697 321.785 117.918 321.121 118.25C320.347 118.803 319.462 119.135 318.577 119.467C318.245 119.577 317.914 119.577 317.692 119.688C317.361 119.799 317.029 119.799 316.697 119.799L316.586 119.909C316.918 120.02 317.361 120.13 317.692 120.241C318.245 120.462 319.02 120.683 319.683 121.015C320.347 121.347 320.789 121.568 321.232 121.79C321.453 121.9 321.674 122.011 321.895 122.232L322.006 122.343L322.559 122.121C323.444 121.679 324.218 121.126 324.992 120.352C325.545 119.577 325.988 118.803 326.32 117.808C326.541 117.255 326.651 116.591 326.651 115.927C326.873 114.932 326.762 114.158 326.541 113.384ZM316.254 109.844C316.033 109.844 315.812 109.734 315.812 109.623C315.812 109.512 316.033 109.402 316.254 109.402C316.476 109.402 316.697 109.512 316.697 109.623C316.697 109.734 316.476 109.844 316.254 109.844Z" fill="white"/>
<path d="M311.167 101.227H313.932C314.153 101.227 314.375 101.448 314.485 101.669V101.89C314.485 102.111 314.264 102.333 313.932 102.333H313.269L313.49 105.983H311.72L311.941 102.333H311.278C311.056 102.333 310.835 102.111 310.725 101.89V101.669C310.725 101.448 310.946 101.227 311.167 101.227C311.278 101.227 311.278 101.227 311.167 101.227Z" fill="white"/>
<path d="M300.77 104.543C300.991 104.654 301.213 104.654 301.434 104.764C301.766 104.875 302.097 104.985 302.429 105.207C302.872 105.428 303.204 105.649 303.646 105.981C303.867 106.202 304.088 106.313 304.31 106.534L304.199 106.644C303.867 106.866 303.204 107.198 302.429 107.64C301.655 108.082 300.328 108.746 299.443 109.078C298.558 109.52 298.005 109.741 297.231 110.073C296.457 110.405 295.793 110.737 295.129 110.847C294.687 111.069 294.244 111.179 293.802 111.29C293.249 111.401 292.917 111.401 292.032 111.511C291.148 111.622 290.152 111.622 289.267 111.511C288.493 111.401 287.719 111.179 286.944 110.958C286.391 110.737 285.396 110.294 286.06 110.294C287.497 110.073 289.046 109.852 290.484 109.41C291.811 109.078 293.028 108.635 294.244 108.082C295.572 107.529 297.452 106.534 298.558 105.981C299.222 105.76 299.775 105.317 300.217 104.875C300.438 104.875 300.66 104.764 300.77 104.543Z" fill="white"/>
<path d="M299.222 104.865C298.669 105.196 298.227 105.418 297.674 105.75C296.346 106.524 295.019 107.077 293.692 107.63C292.143 108.293 290.484 108.736 288.825 109.178C287.387 109.51 285.949 109.731 284.401 109.842C282.852 109.953 281.415 109.842 279.866 109.621C279.202 109.51 278.539 109.4 277.986 109.178C277.433 108.957 276.216 108.515 276.437 108.293C276.658 108.072 278.649 108.293 279.755 108.072C280.861 107.851 281.746 107.851 283.627 107.409C284.622 107.187 285.507 106.966 286.502 106.634C287.498 106.303 288.825 105.86 290.042 105.418L292.475 104.533C293.249 104.201 293.802 103.98 294.245 103.759C294.687 103.537 295.019 103.427 295.24 103.316C295.572 103.206 295.683 102.984 296.125 102.984H297.01C297.342 102.984 297.674 102.984 298.005 103.095C298.448 103.206 298.89 103.427 299.222 103.759C299.443 103.98 299.775 104.09 299.996 104.312" fill="white"/>
<path d="M289.046 100.777C289.046 100.888 289.267 101.22 289.377 101.441C289.599 101.773 289.82 101.994 290.152 102.215C290.483 102.436 290.926 102.658 291.258 102.768C291.7 102.879 292.142 102.989 292.585 102.989C292.917 102.989 293.138 102.989 293.47 102.989C293.802 102.989 294.244 102.879 294.465 102.879C294.686 102.879 295.018 102.768 294.797 102.879C294.465 102.989 293.691 103.321 292.695 103.764C291.7 104.206 290.152 104.649 288.714 105.091C287.386 105.533 286.17 105.976 284.621 106.308C283.183 106.639 281.635 106.861 280.197 107.082C278.759 107.303 277.321 107.414 275.883 107.414C274.888 107.414 273.782 107.303 272.786 107.082C272.233 106.971 271.57 106.75 271.017 106.529C270.574 106.308 270.132 105.976 269.8 105.644C269.468 105.312 269.247 104.98 269.026 104.649L272.897 104.206C272.897 104.206 274.999 103.874 276.105 103.764C277.1 103.542 277.653 103.432 279.091 103.211C280.529 102.879 283.183 102.436 284.621 102.105C286.059 101.773 286.723 101.441 287.386 101.22C288.05 100.999 288.603 100.888 289.046 100.777Z" fill="white"/>
<path d="M310.835 108.859C310.503 108.637 310.171 108.306 309.729 108.195C308.954 107.863 307.627 107.421 306.521 106.868C305.304 106.315 304.198 105.54 302.761 104.766C301.101 103.881 299.442 102.997 297.783 102.333C296.345 101.89 295.239 102.333 294.354 102.222C293.47 102.222 292.695 102.112 291.811 101.89C291.368 101.78 290.926 101.559 290.483 101.227C290.151 101.006 290.041 100.563 290.262 100.231C290.262 100.231 290.262 100.121 290.373 100.121C290.926 99.6784 291.589 99.2359 292.253 98.9041C293.138 98.4617 294.023 98.0193 295.129 97.5768C296.235 97.1344 298.004 96.3602 299.111 96.0284C299.995 95.6965 300.88 95.5859 301.765 95.5859H302.318C302.761 95.5859 303.092 95.6965 303.535 95.8072C304.42 96.0284 305.304 96.5814 305.858 97.245C306.079 97.6874 306.189 98.1299 306.189 98.5723C306.189 99.3465 306.189 100.01 306.3 100.784C306.411 101.559 306.742 102.333 307.185 102.997C307.627 103.55 308.07 104.103 308.623 104.545C309.176 104.987 309.95 105.43 310.392 105.651C310.835 105.872 311.609 106.315 311.941 106.536C312.273 106.757 312.383 106.757 312.494 106.978C312.604 107.2 312.383 107.531 312.162 107.863C311.941 108.084 311.83 108.306 311.609 108.527L310.835 108.859Z" fill="white"/>
<path d="M324.55 104.543C324.329 104.654 324.108 104.654 323.886 104.764C323.555 104.875 323.223 104.985 322.891 105.207C322.449 105.428 322.117 105.649 321.674 105.981C321.453 106.202 321.232 106.313 321.011 106.534L321.121 106.644C321.453 106.866 322.117 107.198 322.891 107.64C323.665 108.082 324.993 108.746 325.877 109.078C326.762 109.41 327.315 109.741 328.089 110.073C328.864 110.405 329.527 110.737 330.191 110.847C330.633 111.069 331.076 111.179 331.518 111.29C332.071 111.401 332.403 111.401 333.288 111.511C334.173 111.622 335.168 111.622 336.053 111.511C336.827 111.401 337.602 111.179 338.376 110.958C338.929 110.737 339.924 110.294 339.261 110.294C337.823 110.073 336.274 109.852 334.836 109.41C333.509 109.078 332.293 108.635 331.076 108.082C329.749 107.529 327.868 106.534 326.762 105.981C326.099 105.76 325.546 105.317 325.103 104.875C324.882 104.875 324.771 104.764 324.55 104.543Z" fill="white"/>
<path d="M326.209 104.865C326.762 105.196 327.205 105.418 327.758 105.75C329.085 106.524 330.412 107.077 331.74 107.63C333.288 108.293 334.947 108.736 336.606 109.178C338.044 109.51 339.482 109.731 341.03 109.842C342.579 109.953 344.017 109.842 345.565 109.621C346.229 109.51 346.893 109.4 347.446 109.178C347.999 108.957 349.215 108.515 348.994 108.293C348.773 108.072 346.782 108.293 345.676 108.072C344.57 107.851 343.685 107.851 341.805 107.409C340.809 107.187 339.814 106.966 338.929 106.634C337.933 106.303 336.606 105.86 335.39 105.418L332.956 104.533C332.182 104.201 331.629 103.98 331.187 103.759C330.744 103.537 330.412 103.427 330.191 103.316C329.859 103.206 329.749 102.984 329.306 102.984H328.421C328.09 102.984 327.758 102.984 327.426 103.095C326.984 103.206 326.541 103.427 326.209 103.759C325.988 103.98 325.656 104.09 325.435 104.312" fill="white"/>
<path d="M336.274 100.777C336.274 100.888 336.052 101.22 335.942 101.441C335.721 101.773 335.499 101.994 335.168 102.215C334.836 102.436 334.393 102.658 334.062 102.768C333.619 102.879 333.177 102.989 332.734 102.989C332.402 102.989 332.181 102.989 331.849 102.989C331.518 102.989 331.075 102.879 330.854 102.879C330.633 102.879 330.301 102.768 330.522 102.879C330.854 102.989 331.628 103.321 332.624 103.764C333.619 104.096 335.168 104.649 336.605 105.091C338.043 105.533 339.149 105.976 340.698 106.308C342.136 106.639 343.684 106.861 345.122 107.082C346.56 107.303 347.998 107.414 349.436 107.414C350.431 107.414 351.537 107.303 352.533 107.082C353.086 106.971 353.749 106.75 354.302 106.529C354.745 106.308 355.187 105.976 355.519 105.644C355.851 105.312 356.072 104.98 356.293 104.649L352.422 104.206C352.422 104.206 350.321 103.874 349.215 103.764C348.219 103.542 347.666 103.432 346.228 103.211C344.79 102.879 342.136 102.436 340.698 102.105C339.26 101.773 338.596 101.441 337.933 101.22C337.269 100.999 336.716 100.888 336.274 100.777Z" fill="white"/>
<path d="M314.485 108.859C314.817 108.637 315.149 108.306 315.591 108.195C316.365 107.863 317.692 107.421 318.799 106.868C320.015 106.315 321.121 105.54 322.559 104.766C324.218 103.881 325.877 102.997 327.536 102.333C328.974 101.89 330.08 102.333 330.965 102.222C331.85 102.222 332.624 102.112 333.509 101.89C333.952 101.78 334.394 101.559 334.836 101.227C335.168 101.006 335.279 100.563 335.058 100.231C335.058 100.231 335.058 100.121 334.947 100.121C334.394 99.6784 333.73 99.2359 333.067 98.9041C332.182 98.4617 331.297 98.0193 330.191 97.5768C329.085 97.1344 327.315 96.3602 326.209 96.0284C325.324 95.6965 324.439 95.5859 323.555 95.5859H323.002C322.559 95.5859 322.227 95.6965 321.785 95.8072C320.9 96.0284 320.015 96.5814 319.462 97.245C319.241 97.6874 319.13 98.1299 319.13 98.5723C319.13 99.3465 319.13 100.01 319.02 100.784C318.909 101.559 318.577 102.333 318.135 102.997C317.692 103.55 317.25 104.103 316.697 104.545C316.144 104.987 315.37 105.43 314.927 105.651C314.485 105.872 313.711 106.315 313.379 106.536C313.047 106.757 312.936 106.757 312.826 106.978C312.715 107.2 312.936 107.531 313.158 107.863C313.379 108.084 313.489 108.306 313.711 108.527L314.485 108.859Z" fill="white"/>
<path d="M312.604 100.783C314.681 100.783 316.365 99.0992 316.365 97.0223C316.365 94.9454 314.681 93.2617 312.604 93.2617C310.527 93.2617 308.844 94.9454 308.844 97.0223C308.844 99.0992 310.527 100.783 312.604 100.783Z" fill="white"/>
</g>
<path d="M251 70.6204L247.146 71.9051C246.708 71.9854 246.62 72.3066 246.445 72.5474L244.869 76L243.467 72.4672C243.38 72.0657 243.029 71.9854 242.766 71.8248L239 70.3796L242.854 69.0949C243.292 69.0146 243.38 68.6934 243.555 68.4526L245.131 65L246.533 68.5328C246.62 68.9343 246.971 69.0146 247.234 69.1752L251 70.6204Z" fill="white"/>
<path d="M255 170.62L251.146 171.905C250.708 171.985 250.62 172.307 250.445 172.547L248.869 176L247.467 172.467C247.38 172.066 247.029 171.985 246.766 171.825L243 170.38L246.854 169.095C247.292 169.015 247.38 168.693 247.555 168.453L249.131 165L250.533 168.533C250.62 168.934 250.971 169.015 251.234 169.175L255 170.62Z" fill="white"/>
<path d="M259 67.6337L256.465 68.6139C256.228 68.703 256.069 68.9703 255.99 69.1485L254.96 72L254.01 69.1485C253.931 68.8812 253.693 68.703 253.535 68.6139L251 67.4554L253.535 66.3861C253.772 66.297 253.931 66.0297 254.01 65.8515L255.04 63L255.99 65.8515C256.069 66.1188 256.307 66.297 256.465 66.3861L259 67.6337Z" fill="white"/>
<path d="M380 83.5882L377.465 84.6471C377.228 84.7353 377.069 85 376.99 85.1765L375.96 88L375.01 85.1765C374.931 84.9118 374.693 84.7353 374.535 84.6471L372 83.4118L374.535 82.3529C374.772 82.2647 374.931 82 375.01 81.8235L376.04 79L376.99 81.8235C377.069 82.0882 377.307 82.2647 377.465 82.3529L380 83.5882Z" fill="#ED8B00"/>
<g filter="url(#filter1_d_2842_120182)">
<path d="M130.441 441.104C126.372 441.104 123 437.848 123 433.663V341.351C123 337.282 126.255 333.91 130.441 333.91H173.923C177.992 333.91 181.364 337.165 181.364 341.351V433.663C181.364 437.732 178.108 441.104 173.923 441.104H130.441Z" fill="#BBDCFD"/>
<path d="M158.692 433.434C158.692 434.364 157.878 435.178 156.948 435.178H147.531C146.6 435.178 145.787 434.364 145.787 433.434V432.736C145.787 431.806 146.6 430.992 147.531 430.992H156.948C157.878 430.992 158.692 431.806 158.692 432.736V433.434Z" fill="#79ACDF"/>
<path d="M154.39 342.05C154.39 343.212 153.46 344.142 152.298 344.142C151.135 344.142 150.205 343.212 150.205 342.05C150.205 340.887 151.135 339.957 152.298 339.957C153.46 339.957 154.39 340.771 154.39 341.933C154.39 341.933 154.39 341.933 154.39 342.05Z" fill="#79ACDF"/>
<path d="M177.294 350.066H127.301V424.939H177.294V350.066Z" fill="white"/>
<path d="M177.643 350.066H126.72V373.319H177.643V350.066Z" fill="#1F91FE"/>
<path d="M172.76 378.441H131.604V394.951H172.76V378.441Z" fill="#FBB040"/>
<path d="M172.76 398.898H131.604V406.804H172.76V398.898Z" fill="#ED8B00"/>
<path d="M172.76 412.5H131.604V414.709H172.76V412.5Z" fill="#9AD9FC"/>
<path d="M151.601 416.57H131.604V418.779H151.601V416.57Z" fill="#9AD9FC"/>
<path d="M152.181 370.181C156.869 370.181 160.669 366.381 160.669 361.694C160.669 357.007 156.869 353.207 152.181 353.207C147.494 353.207 143.694 357.007 143.694 361.694C143.694 366.381 147.494 370.181 152.181 370.181Z" fill="white"/>
<path d="M153.693 356.582H150.787V366.813H153.693V356.582Z" fill="#177FDD"/>
<path d="M157.297 360.184H147.066V363.09H157.297V360.184Z" fill="#177FDD"/>
</g>
<g filter="url(#filter2_d_2842_120182)">
<path d="M320.086 261.242H544.472C549.704 261.242 553.889 265.544 553.889 270.776V423.66H310.669V270.659C310.669 265.428 314.854 261.242 320.086 261.242Z" fill="#023F71"/>
<path d="M543.077 272.168H321.598V412.612H543.077V272.168Z" fill="white"/>
<path d="M273 423.539H591.558V427.957C591.558 435.165 585.628 441.095 578.42 441.095H286.138C278.929 441.095 273 435.165 273 427.957V423.539Z" fill="#BBDCFD"/>
<path d="M400.423 423.539H464.251V428.19C464.251 430.515 462.391 432.375 460.066 432.375H404.493C402.167 432.375 400.307 430.515 400.307 428.19V423.539H400.423Z" fill="#79ACDF"/>
<path d="M391.238 349.831C391.238 356.342 388.68 362.62 384.262 367.271C382.983 368.666 381.472 369.945 379.728 370.991C379.496 371.107 379.379 371.224 379.147 371.34C377.17 372.502 375.078 373.549 372.869 374.13C372.636 374.246 372.52 374.246 372.287 374.363C370.66 374.828 368.916 375.176 367.288 375.176C366.823 375.176 366.242 375.293 365.777 375.293C365.195 375.293 364.73 375.293 364.149 375.176C361.243 374.944 358.336 374.246 355.546 373.084L354.964 372.851C342.292 366.922 336.828 351.808 342.873 339.135C348.802 326.463 363.917 320.998 376.589 327.044C385.425 331.229 391.122 340.065 391.238 349.831Z" fill="#1F91FE"/>
<path d="M376.446 361.585C376.519 361.419 373.346 360.872 372.384 359.789C371.578 358.879 371.422 357.64 371.364 356.481C371.249 354.274 371.291 352.049 371.267 349.838C371.54 349.71 371.381 349.24 371.035 349.298C369.461 349.575 367.824 349.288 366.236 349.271C364.741 349.253 363.246 349.326 361.759 349.458C361.6 349.471 361.51 349.582 361.482 349.707C361.423 349.755 361.385 349.824 361.382 349.921C361.378 352.309 361.534 354.758 361.34 357.135C361.063 360.529 354.815 362.138 355.199 362.1C355.219 362.1 355.244 362.097 355.268 362.093C356.541 363.958 358.403 365.173 360.344 366.307C362.375 367.491 364.575 368.705 367.004 368.722C370.706 368.75 375.913 365.612 376.488 361.782C376.498 361.706 376.477 361.64 376.446 361.585" fill="#FFAC85"/>
<path d="M361.399 351.945L371.245 351.824C371.245 351.824 371.268 352.281 371.299 353.665C371.245 353.686 369.773 355.921 366.857 355.921C363.941 355.921 362.118 354.128 361.433 353.663C361.433 352.721 361.399 351.945 361.399 351.945Z" fill="#F78C59"/>
<path d="M375.505 342.237C374.308 341.199 373.508 343.044 373.225 343.85C372.948 344.635 371.927 347.552 374.014 347.057C374.678 346.898 374.972 346.258 375.235 345.749C375.706 344.832 376.515 343.113 375.505 342.237" fill="#FFAC85"/>
<path d="M359.018 344.507C358.821 343.338 358.284 342.175 357.717 341.878C356.956 341.48 356.264 342.182 356.011 342.857C355.665 343.77 355.983 344.812 356.399 345.649C356.7 346.258 357.198 347.355 358.028 347.237C359.046 347.095 359.236 345.798 359.018 344.507Z" fill="#FFAC85"/>
<path d="M372.263 333.817C369.689 330.983 363.544 330.443 360.787 332.675C357.801 335.094 357.666 339.553 357.835 342.965C357.877 343.792 357.96 344.619 358.074 345.439C358.413 347.837 358.939 350.435 360.703 352.341C361.828 353.552 363.333 354.192 364.956 354.39C367.007 354.635 368.993 354.649 370.734 353.365C372.768 351.864 373.519 349.113 373.772 346.709C374.228 342.359 375.567 337.453 372.263 333.817" fill="#FFAC85"/>
<path d="M359.766 345.706C359.768 346.324 360.593 346.822 361.608 346.816C362.623 346.812 363.445 346.308 363.443 345.69C363.44 345.072 362.616 344.574 361.601 344.578C360.587 344.583 359.765 345.088 359.766 345.706Z" fill="#EC8076"/>
<path d="M368.626 345.819C368.627 346.437 369.453 346.936 370.467 346.93C371.482 346.926 372.304 346.421 372.302 345.803C372.299 345.185 371.475 344.687 370.461 344.691C369.446 344.697 368.624 345.201 368.626 345.819Z" fill="#EC8076"/>
<path d="M368.557 349.039C368.699 349.497 368.404 349.963 367.993 350.282C367.573 350.612 367.009 350.757 366.444 350.852C365.872 350.846 365.255 350.797 364.758 350.508C364.266 350.23 363.925 349.771 364.01 349.313L364.094 349.28C364.511 349.93 365.487 350.204 366.35 350.108C367.214 350.048 368.122 349.678 368.47 349.013L368.557 349.039" fill="#DB5537"/>
<path d="M369.781 341.068C369.295 341.067 368.884 341.42 368.862 341.905C368.838 342.412 369.273 342.823 369.781 342.824C370.27 342.825 370.685 342.462 370.7 341.973C370.715 341.469 370.285 341.069 369.781 341.068Z" fill="#260A0A"/>
<path d="M361.056 341.124C361.321 340.965 361.694 340.92 362.011 341.115C362.369 341.338 362.483 341.786 362.404 342.079C362.338 342.313 362.069 342.611 361.749 342.75C361.252 342.965 360.877 342.671 360.725 342.397C360.501 341.987 360.518 341.445 361.056 341.124Z" fill="#260A0A"/>
<path d="M373.771 360.414C373.283 358.832 372.674 357.632 371.927 356.154C371.913 356.127 371.896 356.113 371.878 356.092C371.792 355.885 371.432 355.767 371.353 356.037C370.84 357.805 369.176 359.365 367.682 360.338C367.304 360.587 367.187 360.708 367.111 361.137C367.038 361.562 366.934 361.981 366.827 362.396C366.609 363.24 366.363 364.078 366.187 364.936C366.121 365.247 365.678 365.282 365.561 364.984C365.038 363.673 364.734 362.292 364.45 360.898C364.467 360.815 364.45 360.725 364.367 360.649C363.184 359.538 361.952 358.151 361.502 356.556C361.454 356.372 361.281 356.321 361.139 356.359C360.731 356.594 359.035 358.832 358.499 360.175C358.336 360.203 358.201 360.331 358.271 360.524C359.405 363.701 362.27 366.752 365.841 367.043C365.913 367.05 367.633 366.607 368.301 366.299C369.114 365.925 369.886 365.42 370.588 364.88C372.024 363.777 373.041 362.403 373.736 360.756C373.761 360.701 373.764 360.652 373.757 360.607C373.781 360.552 373.792 360.49 373.771 360.414" fill="#F3F3F4"/>
<path d="M359.355 359.817C358.783 360.005 357.521 360.438 357.521 360.438C357.521 360.438 349.01 362.746 345.307 364.982C349.207 370.395 355.33 375.295 366.021 375.295C378.036 375.295 384.085 369.155 387.255 363.43C383.554 361.65 376.128 360.38 374.124 360.076C374.085 360.069 374.011 360.089 373.967 360.22C373.416 360.077 373.063 360.011 373.025 360.052C371.364 361.834 368.918 363.934 366.756 365.408C366.219 365.775 365.5 365.712 365.04 365.252C364.513 364.727 363.896 364.089 363.265 363.436L363.264 363.436C361.516 361.627 359.665 359.712 359.355 359.817Z" fill="#ED6247"/>
<path d="M377.744 336.891C377.502 336.175 377.256 335.462 376.958 334.77C376.872 334.566 376.779 334.362 376.682 334.161C375.806 332.355 374.146 331.061 372.336 330.137C367.963 327.902 363.032 327.556 358.853 330.224C357.354 331.179 355.652 332.926 355.42 334.763C355.31 335.628 355.434 336.552 355.078 337.365C354.714 338.192 353.749 338.708 353.773 339.697C353.798 340.624 354.625 341.323 355.448 341.576C355.915 341.721 356.621 341.559 357.036 341.752C357.624 342.026 358.05 342.42 358.714 342.067C360.133 341.32 360.368 338.96 360.804 337.601C361.34 335.926 362.236 334.4 363.392 333.089C363.634 332.812 364.063 332.809 364.319 333.075C365.831 334.653 366.049 336.289 367.008 338.299C367.278 338.867 367.606 339.431 368.219 339.676C369.066 340.012 369.717 339.42 370.533 339.306C372.035 339.099 373.357 341.68 374.896 340.967C376.09 341.507 377.263 341.05 377.855 339.659C378.235 338.76 378.031 337.746 377.744 336.891" fill="#B34D46"/>
<path d="M365.463 343.912C365.047 344.878 365.047 345.089 365.515 345.903C365.678 346.069 365.934 345.813 365.771 345.647C365.515 344.985 365.463 344.906 365.771 344.095C365.909 343.908 365.598 343.728 365.463 343.912Z" fill="#C2614F"/>
<path d="M384.96 379.02H346.71V381.81H384.96V379.02Z" fill="#177FDD"/>
<path d="M384.96 386.105H346.71V388.896H384.96V386.105Z" fill="#177FDD"/>
<path d="M384.96 393.082H346.71V395.872H384.96V393.082Z" fill="#177FDD"/>
<path d="M376.124 399.477H355.43V402.267H376.124V399.477Z" fill="#177FDD"/>
<path d="M360.894 289.379H354.035V282.52H347.292V289.379H340.548V296.006H347.292V302.982H354.035V296.006H360.894V289.379Z" fill="#FBB040"/>
<path d="M407.631 282.52H369.381V285.31H407.631V282.52Z" fill="#177FDD"/>
<path d="M390.075 288.676H369.381V291.699H390.075V288.676Z" fill="#177FDD"/>
<path d="M524.126 297.977H517.383L513.313 312.859L506.105 297.977L499.711 306.464L490.061 290.653L477.156 311.347L469.483 295.187L461.809 303.558L455.764 285.77L450.067 299.023H440.999" stroke="#9AD9FC" stroke-width="4.13" stroke-linejoin="round"/>
<g opacity="0.75">
<path d="M430.302 329.488H422.861V400.873H430.302V329.488Z" fill="#9AD9FC"/>
<path d="M452.625 375.531H445.184V400.993H452.625V375.531Z" fill="#9AD9FC"/>
<path d="M441.463 357.273H434.022V400.872H441.463V357.273Z" fill="#9AD9FC"/>
<path d="M474.947 334.371H467.506V400.873H474.947V334.371Z" fill="#9AD9FC"/>
<path d="M463.67 357.273H456.229V400.872H463.67V357.273Z" fill="#9AD9FC"/>
</g>
<path d="M488.782 344.832H482.969V400.87H488.782V344.832Z" fill="#177FDD"/>
<path d="M506.222 380.992H500.409V400.873H506.222V380.992Z" fill="#177FDD"/>
<path d="M497.502 366.574H491.688V400.639H497.502V366.574Z" fill="#177FDD"/>
<path d="M523.777 348.672H517.964V400.873H523.777V348.672Z" fill="#177FDD"/>
<path d="M514.942 366.574H509.128V400.639H514.942V366.574Z" fill="#177FDD"/>
</g>
<g filter="url(#filter3_d_2842_120182)">
<path d="M229.236 298.215H316.897C319.804 298.215 322.245 300.54 322.245 303.563V303.679V435.869C322.245 438.776 319.92 441.101 317.014 441.217H229.352C226.445 441.217 224.12 438.892 224.004 435.985V303.563C223.888 300.656 226.329 298.331 229.236 298.215Z" fill="#BBDCFD"/>
<path d="M267.718 429.82H278.531C279.81 429.82 280.856 430.867 280.856 432.146V432.727C280.856 434.006 279.81 435.052 278.531 435.052H267.718C266.439 435.052 265.393 434.006 265.393 432.727V432.146C265.277 430.867 266.323 429.82 267.718 429.82Z" fill="#79ACDF"/>
<path d="M273.067 307.744C271.788 307.628 270.742 306.465 270.858 305.187C270.974 303.908 272.137 302.861 273.416 302.978C274.695 303.094 275.741 304.256 275.625 305.535C275.508 306.698 274.578 307.628 273.416 307.744H273.067Z" fill="#79ACDF"/>
<path d="M316.664 312.168H229.468V423.779H316.664V312.168Z" fill="white"/>
<path d="M250.395 348.902H232.956V366.342H250.395V348.902Z" fill="#9AD9FC"/>
<path d="M271.206 348.902H253.767V366.342H271.206V348.902Z" fill="#177FDD"/>
<path d="M292.134 348.902H274.694V366.342H292.134V348.902Z" fill="#FBB040"/>
<path d="M313.06 348.902H295.621V366.342H313.06V348.902Z" fill="#9AD9FC"/>
<path d="M250.395 369.715H232.956V387.154H250.395V369.715Z" fill="#FBB040"/>
<path d="M271.206 369.715H253.767V387.154H271.206V369.715Z" fill="#9AD9FC"/>
<path d="M292.134 369.715H274.694V387.154H292.134V369.715Z" fill="#105CB5"/>
<path d="M313.06 369.715H295.621V387.154H313.06V369.715Z" fill="#ED8B00"/>
<path d="M250.395 390.523H232.956V407.963H250.395V390.523Z" fill="#9AD9FC"/>
<path d="M271.206 390.523H253.767V407.963H271.206V390.523Z" fill="#ED8B00"/>
<path d="M316.664 312.168H229.468V345.186H316.664V312.168Z" fill="#1F91FE"/>
<path d="M273.067 341.697C280.194 341.697 285.972 335.919 285.972 328.792C285.972 321.665 280.194 315.887 273.067 315.887C265.939 315.887 260.162 321.665 260.162 328.792C260.162 335.919 265.939 341.697 273.067 341.697Z" fill="white"/>
<path d="M273.067 339.371C278.91 339.371 283.647 334.634 283.647 328.791C283.647 322.948 278.91 318.211 273.067 318.211C267.224 318.211 262.487 322.948 262.487 328.791C262.487 334.634 267.224 339.371 273.067 339.371Z" fill="#1F91FE"/>
<path d="M280.391 331.114V326.231H275.624V321.348H270.741V326.114H265.975V330.997H270.741V335.764H275.624V330.997H280.391V331.114V331.114ZM275.392 329.137C274.811 330.067 273.997 330.765 273.067 331.23C272.137 330.765 271.323 330.067 270.741 329.137C270.741 329.021 270.741 329.021 270.625 328.905C270.509 328.672 270.509 328.556 270.509 328.323C270.509 327.51 271.09 326.812 271.904 326.812C272.369 326.812 272.718 326.928 272.95 327.277C273.183 326.928 273.648 326.812 273.997 326.812C274.811 326.812 275.392 327.51 275.392 328.323C275.392 328.556 275.392 328.788 275.276 328.905C275.508 328.905 275.392 329.137 275.392 329.137Z" fill="white"/>
</g>
</g>
<defs>
<filter id="filter0_d_2842_120182" x="180.988" y="-10.9258" width="263.012" height="280.488" filterUnits="userSpaceOnUse" color-interpolation-filters="sRGB">
<feFlood flood-opacity="0" result="BackgroundImageFix"/>
<feColorMatrix in="SourceAlpha" type="matrix" values="0 0 0 0 0 0 0 0 0 0 0 0 0 0 0 0 0 0 127 0" result="hardAlpha"/>
<feMorphology radius="6" operator="erode" in="SourceAlpha" result="effect1_dropShadow_2842_120182"/>
<feOffset/>
<feGaussianBlur stdDeviation="39"/>
<feColorMatrix type="matrix" values="0 0 0 0 0 0 0 0 0 0.266803 0 0 0 0 0.525 0 0 0 0.72 0"/>
<feBlend mode="normal" in2="BackgroundImageFix" result="effect1_dropShadow_2842_120182"/>
<feBlend mode="normal" in="SourceGraphic" in2="effect1_dropShadow_2842_120182" result="shape"/>
</filter>
<filter id="filter1_d_2842_120182" x="108" y="318.91" width="88.3633" height="137.195" filterUnits="userSpaceOnUse" color-interpolation-filters="sRGB">
<feFlood flood-opacity="0" result="BackgroundImageFix"/>
<feColorMatrix in="SourceAlpha" type="matrix" values="0 0 0 0 0 0 0 0 0 0 0 0 0 0 0 0 0 0 127 0" result="hardAlpha"/>
<feMorphology radius="6" operator="erode" in="SourceAlpha" result="effect1_dropShadow_2842_120182"/>
<feOffset/>
<feGaussianBlur stdDeviation="10.5"/>
<feColorMatrix type="matrix" values="0 0 0 0 0 0 0 0 0 0.266803 0 0 0 0 0.525 0 0 0 0.72 0"/>
<feBlend mode="normal" in2="BackgroundImageFix" result="effect1_dropShadow_2842_120182"/>
<feBlend mode="normal" in="SourceGraphic" in2="effect1_dropShadow_2842_120182" result="shape"/>
</filter>
<filter id="filter2_d_2842_120182" x="258" y="246.242" width="348.558" height="209.852" filterUnits="userSpaceOnUse" color-interpolation-filters="sRGB">
<feFlood flood-opacity="0" result="BackgroundImageFix"/>
<feColorMatrix in="SourceAlpha" type="matrix" values="0 0 0 0 0 0 0 0 0 0 0 0 0 0 0 0 0 0 127 0" result="hardAlpha"/>
<feMorphology radius="6" operator="erode" in="SourceAlpha" result="effect1_dropShadow_2842_120182"/>
<feOffset/>
<feGaussianBlur stdDeviation="10.5"/>
<feColorMatrix type="matrix" values="0 0 0 0 0 0 0 0 0 0.266803 0 0 0 0 0.525 0 0 0 0.72 0"/>
<feBlend mode="normal" in2="BackgroundImageFix" result="effect1_dropShadow_2842_120182"/>
<feBlend mode="normal" in="SourceGraphic" in2="effect1_dropShadow_2842_120182" result="shape"/>
</filter>
<filter id="filter3_d_2842_120182" x="209" y="283.215" width="128.245" height="173.004" filterUnits="userSpaceOnUse" color-interpolation-filters="sRGB">
<feFlood flood-opacity="0" result="BackgroundImageFix"/>
<feColorMatrix in="SourceAlpha" type="matrix" values="0 0 0 0 0 0 0 0 0 0 0 0 0 0 0 0 0 0 127 0" result="hardAlpha"/>
<feMorphology radius="6" operator="erode" in="SourceAlpha" result="effect1_dropShadow_2842_120182"/>
<feOffset/>
<feGaussianBlur stdDeviation="10.5"/>
<feColorMatrix type="matrix" values="0 0 0 0 0 0 0 0 0 0.266803 0 0 0 0 0.525 0 0 0 0.72 0"/>
<feBlend mode="normal" in2="BackgroundImageFix" result="effect1_dropShadow_2842_120182"/>
<feBlend mode="normal" in="SourceGraphic" in2="effect1_dropShadow_2842_120182" result="shape"/>
</filter>
<clipPath id="clip0_2842_120182">
<rect width="670" height="473" fill="white" transform="translate(0.5)"/>
</clipPath>
</defs>
</svg>
